<svg width="32" height="32" viewBox="0 0 32 32" fill="none" xmlns="http://www.w3.org/2000/svg">
<g id="icons8-instagram 1">
<g id="Group">
<g id="Group_2">
<path id="Vector" d="M10.6383 4.22339C7.02546 4.22339 4.0957 7.15314 4.0957 10.7659V21.234C4.0957 24.8468 7.02546 27.7766 10.6383 27.7766H21.1063C24.7191 27.7766 27.6489 24.8468 27.6489 21.234V10.7659C27.6489 7.15314 24.7191 4.22339 21.1063 4.22339H10.6383ZM23.7234 6.84041C24.4457 6.84041 25.0319 7.42662 25.0319 8.14892C25.0319 8.87122 24.4457 9.45743 23.7234 9.45743C23.0011 9.45743 22.4149 8.87122 22.4149 8.14892C22.4149 7.42662 23.0011 6.84041 23.7234 6.84041ZM15.8723 9.45743C19.4851 9.45743 22.4149 12.3872 22.4149 16C22.4149 19.6128 19.4851 22.5425 15.8723 22.5425C12.2595 22.5425 9.32975 19.6128 9.32975 16C9.32975 12.3872 12.2595 9.45743 15.8723 9.45743ZM15.8723 12.0745C13.7043 12.0745 11.9468 13.832 11.9468 16C11.9468 18.168 13.7043 19.9255 15.8723 19.9255C18.0403 19.9255 19.7978 18.168 19.7978 16C19.7978 13.832 18.0403 12.0745 15.8723 12.0745Z" fill="white"/>
</g>
</g>
</g>
</svg>
