<svg width="272" height="118" viewBox="0 0 272 118" fill="none" xmlns="http://www.w3.org/2000/svg">
<path d="M213.289 29.2269L213.386 29.3934L213.744 30.0139L214.486 29.6228C214.555 29.5884 214.595 29.501 214.608 29.3934C214.623 29.0573 214.38 28.6022 214.029 28.8144C213.755 28.9582 213.588 29.0573 213.289 29.2269ZM212.514 29.3934L212.318 29.0404C212.833 28.7133 213.386 28.4288 213.92 28.1429C214.548 27.7948 215.434 28.6372 215.372 29.3934C215.36 29.5268 215.323 29.6479 215.244 29.7704L216.528 30.7078C216.286 30.8217 216.103 30.9187 215.815 31.0446L214.689 30.22L214.069 30.553L214.73 31.6497C214.474 31.8131 214.319 31.9146 214.019 32.0897L212.514 29.3934ZM229.493 64.7373L230.663 68.0882C230.891 68.0088 231.135 67.9393 231.365 67.8385L230.231 64.5023C229.919 64.6086 229.776 64.6516 229.493 64.7373ZM224.816 67.8997L224.542 67.2224L224.265 66.489L224.024 67.2224L223.788 67.9448L224.816 67.8997ZM225.279 67.2224L226.044 69.0841C225.793 69.0951 225.561 69.1202 225.337 69.146L225.101 68.5444L223.571 68.587L223.396 69.2166C223.151 69.1952 222.923 69.188 222.68 69.188L223.34 67.2224L223.81 65.7304L223.833 65.6833L224.613 65.6482L224.653 65.7428L225.279 67.2224ZM229.119 28.0511L229.91 28.3067C230.126 28.3689 230.413 28.029 230.413 27.7329C230.413 27.5918 230.364 27.4666 230.175 27.425C229.883 27.3118 229.682 27.2616 229.363 27.1804L229.201 27.7329L229.119 28.0511ZM228.634 29.9032C228.351 29.821 228.142 29.7855 227.831 29.6968L228.404 27.7329L228.824 26.3328C229.429 26.4834 230.004 26.6805 230.58 26.8687C230.906 26.9692 231.08 27.339 231.113 27.7329C231.135 28.2678 230.87 28.8488 230.332 28.9702L230.541 30.553C230.288 30.4481 230.102 30.3696 229.822 30.2592L229.639 28.876L228.964 28.6679L228.634 29.9032ZM217.886 65.5374C217.865 65.4384 217.825 65.3586 217.704 65.3028L216.818 64.9753L216.618 65.5374L216.547 65.7428L216.541 65.7559L217.348 66.059C217.57 66.1573 217.784 65.9595 217.861 65.7428C217.886 65.6833 217.909 65.6093 217.886 65.5374ZM218.55 65.5374V65.7304C218.496 66.2034 218.176 66.684 217.658 66.7442L217.778 68.3954C217.538 68.3404 217.266 68.2602 217.01 68.1508L216.982 66.5977L216.286 66.2991L215.722 67.6699C215.494 67.5942 215.266 67.5206 215.044 67.4109L215.758 65.7428L215.843 65.5374L216.425 64.1611L218.009 64.7744C218.361 64.9003 218.524 65.2151 218.55 65.5374ZM228.655 65.0366C227.627 65.2626 226.836 65.4504 225.816 65.6093L225.91 66.2034C226.287 66.1436 226.632 66.0989 227.031 66.0483L227.545 68.9114L228.302 68.768L227.688 65.9134C228.078 65.8161 228.436 65.7177 228.824 65.6269L228.655 65.0366ZM232.519 31.5403L233.284 30.0638L235.346 29.102C235.129 28.9458 234.894 28.8368 234.677 28.693L233.256 29.3421L232.995 27.7948C232.698 27.6541 232.519 27.5918 232.21 27.4666L232.624 29.7174L231.859 31.1763L232.519 31.5403ZM240.253 32.4436C239.928 32.0436 239.388 32.1034 239.233 32.3821L236.832 34.8018C236.481 35.1688 236.515 35.7065 236.879 35.968C240.503 39.9921 242.017 45.0015 240.829 51.2049C240.802 51.6112 241.057 51.938 241.373 52.0298L244.692 52.9951C245.134 53.121 245.417 52.8516 245.511 52.4719C247.219 44.8353 244.881 37.3275 240.253 32.4436ZM244.092 54.7746L240.771 53.6366C240.597 53.5716 240.144 53.5716 239.906 54.1582C237.224 60.6134 230.979 65.0311 223.747 65.0311C216.507 65.0311 210.147 60.5119 207.58 54.0574C207.389 53.5716 206.922 53.5716 206.746 53.6366L203.442 54.7746C203.084 54.9046 202.868 55.2235 203.056 55.6842C206.301 63.9929 214.371 69.8588 223.747 69.8588C233.122 69.8588 241.228 63.9526 244.484 55.6491C244.653 55.2146 244.449 54.9046 244.092 54.7746ZM202.9 52.9951L206.214 52.0298C206.524 51.938 206.78 51.6112 206.756 51.2049C205.566 45.0121 207.077 39.9921 210.695 35.968C211.061 35.7065 211.1 35.1688 210.75 34.8018L208.341 32.3721C208.107 32.1034 207.682 32.1034 207.317 32.477C202.7 37.3526 200.368 44.8353 202.079 52.4846C202.173 52.8516 202.462 53.121 202.9 52.9951ZM236.143 37.5146C236.152 37.3663 236.061 37.1792 235.854 36.9748C233.202 34.1592 230.477 32.5843 226.74 31.6927C226.531 31.6383 226.287 31.5884 226.125 31.7322C225.958 31.8664 225.91 32.1261 225.944 32.5148L226.559 41.1889C226.579 41.5178 226.727 41.7782 226.945 41.9103C227.185 42.0465 227.472 42.0214 227.77 41.8772L235.555 38.107C235.805 37.9855 236.088 37.8531 236.143 37.5861C236.143 37.5693 236.152 37.548 236.143 37.5146ZM237.717 53.0188C237.948 53.1691 238.216 53.3518 238.459 53.2668C238.625 53.2163 238.767 53.0346 238.859 52.7072C239.948 48.9991 239.948 45.8319 238.859 42.1683C238.791 41.9381 238.685 41.7004 238.493 41.6148C238.299 41.5449 238.055 41.6251 237.705 41.8628L230.565 46.7346C230.288 46.921 230.148 47.1752 230.148 47.4377C230.148 47.6992 230.288 47.9537 230.565 48.1367L237.717 53.0188ZM226.104 63.1005C226.236 63.2044 226.452 63.2347 226.784 63.1514C230.498 62.2574 233.223 60.6777 235.878 57.8823C236.036 57.6983 236.209 57.5088 236.158 57.2989C236.109 57.0973 235.939 56.9147 235.576 56.7433L227.788 52.9514C227.493 52.8117 227.206 52.8117 226.969 52.9363C226.74 53.0814 226.6 53.3274 226.579 53.6704L225.95 62.3196C225.944 62.6028 225.91 62.9261 226.104 63.1005ZM223.747 53.0814C226.823 53.0814 229.322 50.5771 229.322 47.4921C229.322 44.4074 226.823 41.8999 223.747 41.8886C220.674 41.8886 218.176 44.4074 218.176 47.4921C218.176 50.5771 220.674 53.0814 223.747 53.0814ZM211.499 57.443C211.499 57.5913 211.6 57.776 211.788 57.9725C214.466 60.7981 217.177 62.3709 220.901 63.2474C221.139 63.32 221.373 63.3561 221.538 63.2264C221.706 63.1005 221.754 62.8408 221.726 62.4318C221.726 62.4191 221.092 53.7588 221.092 53.7588C221.066 53.4302 220.942 53.1798 220.713 53.0477C220.481 52.9111 220.191 52.9111 219.881 53.0532L212.114 56.8465C211.843 56.9735 211.549 57.1162 211.508 57.3711C211.508 57.388 211.499 57.421 211.499 57.443ZM211.387 37.6525C211.419 37.914 211.716 38.0471 211.974 38.1689L219.75 41.9591C220.059 42.1074 220.347 42.1074 220.581 41.9846C220.8 41.8411 220.942 41.5914 220.961 41.2598L221.589 32.6046C221.624 32.1867 221.565 31.9414 221.415 31.8131C221.251 31.671 221.007 31.7113 220.774 31.7543C217.047 32.6535 214.331 34.2338 211.654 37.0347C211.438 37.28 211.337 37.486 211.387 37.6525ZM209.825 41.9206C209.571 41.7555 209.301 41.5673 209.08 41.666C208.899 41.7204 208.767 41.9103 208.673 42.2181C207.592 45.9396 207.592 49.0944 208.673 52.7674C208.746 53.0064 208.828 53.2445 209.045 53.305C209.223 53.3793 209.484 53.305 209.825 53.0694L216.961 48.1918C217.226 48.0129 217.387 47.7587 217.387 47.5038C217.387 47.2265 217.226 46.9829 216.961 46.7961L209.825 41.9206ZM209.669 31.0865L211.974 33.6631C212.296 34.0102 212.651 33.9676 213.117 33.6022C216.029 31.3098 219.766 29.9541 223.747 29.9541C227.734 29.9541 231.473 31.305 234.413 33.6022C234.873 33.9428 235.218 34.0102 235.555 33.6631L237.861 31.0865C238.122 30.8017 238.122 30.4092 237.622 29.9892C233.756 26.9692 228.984 25.105 223.738 25.105C218.524 25.105 213.683 26.9692 209.886 30.0029C209.389 30.4092 209.411 30.8017 209.669 31.0865ZM251.829 47.513C251.829 47.8412 251.814 48.1711 251.777 48.4336L251.768 48.5048L251.692 48.5437C250.499 49.2565 248.958 49.662 247.412 49.7047C247.374 49.9011 247.207 51.3026 247.178 51.4997C248.62 51.9166 250.017 52.7071 250.992 53.7175L251.031 53.7801V53.8444C250.955 54.3959 250.76 55.1358 250.544 55.6164L250.52 55.6921L250.45 55.7034C249.098 56.0939 247.505 56.0791 246.032 55.7131C245.962 55.8964 245.417 57.1988 245.362 57.388C246.653 58.2067 247.795 59.3327 248.437 60.5343L248.471 60.6013L248.449 60.6715C248.248 61.1497 247.871 61.8418 247.533 62.2574L247.497 62.3196H247.412C246.032 62.3358 244.491 61.9251 243.146 61.1731C243.024 61.3344 242.126 62.5253 242.004 62.6857C243.063 63.7806 243.867 65.169 244.193 66.5385L244.214 66.6097L244.174 66.6592C243.867 67.0786 243.301 67.6338 242.89 67.9668L242.842 68.0088L242.741 67.9892C241.413 67.6338 240.01 66.8281 238.92 65.7703C238.758 65.8925 237.645 66.7655 237.479 66.889C238.192 68.199 238.625 69.7061 238.625 71.0676V71.2572L238.542 71.3036C238.131 71.6359 237.449 72.0326 236.962 72.2324L236.913 72.2531L236.832 72.2262C235.637 71.5283 234.492 70.3896 233.71 69.0841C233.521 69.1674 232.166 69.7494 231.981 69.8313C232.166 70.5582 232.276 71.3188 232.297 72.0708C232.297 72.8296 232.166 73.5888 231.981 74.2748L231.971 74.3426L231.898 74.3825C231.445 74.5717 230.68 74.7619 230.148 74.8555L230.065 74.8668L230.02 74.8094C228.99 73.8269 228.203 72.4302 227.788 70.971C227.605 70.9847 226.201 71.1753 226.004 71.2169C225.979 72.7474 225.561 74.2989 224.834 75.5022L224.796 75.5655L224.713 75.5761C224.226 75.6501 223.445 75.6501 222.913 75.5761L222.848 75.5655L222.801 75.5022C222.098 74.2989 221.677 72.7474 221.644 71.2169C221.434 71.196 219.955 70.9847 219.75 70.971C219.346 72.4209 218.55 73.8104 217.548 74.8039L217.495 74.8555L217.412 74.8431C216.863 74.7619 216.143 74.5496 215.659 74.3487L215.601 74.3205L215.576 74.2586C215.372 73.5751 215.266 72.8083 215.266 72.0484C215.266 71.3036 215.372 70.5582 215.56 69.8313C215.372 69.7494 214.092 69.2293 213.908 69.146C213.117 70.4735 211.974 71.6266 210.769 72.2999L210.704 72.3353L210.628 72.315C210.128 72.091 209.471 71.7123 209.045 71.3924L208.994 71.3404V71.196C208.994 69.8175 209.411 68.2998 210.128 66.9726C209.97 66.8488 208.777 65.9392 208.613 65.8161C207.52 66.8732 206.127 67.6699 204.783 68.016L204.713 68.037L204.64 67.9892C204.228 67.6562 203.699 67.1199 203.367 66.6991L203.322 66.6259L203.342 66.5547C203.699 65.1938 204.505 63.8047 205.552 62.7252C205.432 62.5618 204.529 61.3877 204.401 61.2116C203.071 61.9598 201.516 62.3922 200.136 62.3571H200.062L200.015 62.31C199.692 61.8814 199.306 61.1972 199.098 60.7118L199.067 60.6392L199.098 60.5752C199.793 59.3547 200.928 58.2284 202.225 57.4485C202.141 57.2483 201.588 55.937 201.494 55.7519C200.021 56.1204 198.419 56.131 197.071 55.7519L197.005 55.7316L196.966 55.6704C196.784 55.2146 196.584 54.4468 196.502 53.907L196.487 53.8221L196.535 53.7588C197.516 52.7557 198.894 51.9624 200.368 51.5238C200.353 51.317 200.136 49.8261 200.114 49.6201C198.575 49.5994 197.028 49.2007 195.824 48.4828L195.763 48.4429L195.758 48.36C195.725 48.1092 195.715 47.7817 195.715 47.4497C195.715 47.1257 195.725 46.8078 195.758 46.5371L195.763 46.4539L195.824 46.4205C197.028 45.7087 198.575 45.2963 200.114 45.2732C200.146 45.0699 200.329 43.6203 200.353 43.4246C198.894 43.0052 197.503 42.2044 196.514 41.2051L196.473 41.1562L196.487 41.0785C196.55 40.5215 196.76 39.7764 196.966 39.3137L196.989 39.2466L197.061 39.226C198.393 38.8321 200.003 38.8435 201.482 39.2078C201.564 39.0272 202.104 37.72 202.185 37.5235C200.879 36.7309 199.732 35.6026 199.05 34.3842L199.016 34.3068L199.05 34.2338C199.265 33.745 199.65 33.0825 199.953 32.6669L200.003 32.6046H200.086C201.482 32.5843 203.022 33.0126 204.351 33.7515C204.475 33.6022 205.382 32.3721 205.505 32.2087C204.451 31.1062 203.653 29.725 203.308 28.3562L203.293 28.2974L203.322 28.2372C203.66 27.8127 204.219 27.2616 204.628 26.9375L204.694 26.8969L204.755 26.909C206.127 27.2616 207.512 28.0806 208.589 29.1323C208.746 29.007 209.825 28.1728 209.985 28.0511C209.243 26.7473 208.828 25.2278 208.828 23.8776V23.6743L208.897 23.6268C209.301 23.3093 209.985 22.9151 210.474 22.7163L210.526 22.6836L210.607 22.719C211.809 23.4012 212.94 24.5429 213.73 25.8498C213.92 25.7782 215.323 25.1669 215.515 25.0899C215.332 24.3613 215.218 23.6065 215.229 22.8587C215.229 22.0816 215.323 21.3413 215.528 20.6584L215.538 20.5738L215.61 20.5545C216.062 20.3643 216.818 20.1607 217.348 20.0788L217.433 20.0678L217.495 20.1214C218.496 21.0984 219.294 22.4968 219.715 23.9719C219.92 23.9509 221.395 23.7648 221.592 23.7287C221.624 22.2099 222.038 20.6584 222.761 19.453L222.792 19.3897L222.868 19.3691C223.396 19.3065 224.174 19.3065 224.685 19.3691L224.753 19.3897L224.796 19.453C225.523 20.6584 225.944 22.2099 225.944 23.7149C226.165 23.7648 227.605 23.9509 227.811 23.9719C228.241 22.4968 229.033 21.1091 230.041 20.1283L230.087 20.0788L230.153 20.0994C230.703 20.1607 231.445 20.3643 231.923 20.5738L231.981 20.5972L232.005 20.6801C232.21 21.3564 232.31 22.0936 232.31 22.8587C232.297 23.6141 232.187 24.375 232.005 25.105C232.187 25.1797 233.588 25.7679 233.783 25.8498C234.56 24.5429 235.677 23.4101 236.892 22.719L236.962 22.6836L237.035 22.7163C237.516 22.9213 238.189 23.3093 238.603 23.6365L238.665 23.6743V23.8638C238.665 25.2488 238.237 26.7614 237.516 28.0511C237.671 28.1728 238.828 29.0803 239.002 29.2138C240.092 28.1518 241.477 27.339 242.842 27.0025L242.903 26.9692L242.963 27.0332C243.374 27.339 243.928 27.9172 244.242 28.3318L244.3 28.393L244.275 28.4632C243.928 29.8327 243.106 31.2224 242.059 32.3095C242.18 32.477 243.051 33.6277 243.185 33.7938C244.543 33.0615 246.078 32.6418 247.469 32.6669H247.533L247.579 32.7288C247.917 33.1623 248.303 33.8341 248.492 34.2951L248.538 34.3842L248.492 34.4512C247.801 35.6601 246.665 36.7795 245.362 37.5775C245.441 37.7757 245.971 39.0877 246.072 39.2714C247.533 38.9023 249.14 38.8944 250.471 39.2714L250.55 39.2876L250.581 39.3643C250.766 39.8287 250.983 40.5824 251.053 41.1369L251.065 41.2051L251.01 41.2598C250.033 42.2756 248.641 43.0709 247.178 43.4855C247.207 43.6881 247.39 45.1205 247.424 45.3238C248.964 45.3568 250.499 45.7703 251.692 46.4793L251.768 46.5244L251.777 46.597C251.814 46.8584 251.829 47.1752 251.829 47.513ZM236.109 60.7981L237.57 62.3792L235.117 61.653C234.913 61.8088 234.776 61.8628 234.596 62.021L236.731 64.9003C236.913 64.7583 237.102 64.5849 237.272 64.439L235.977 62.707L238.454 63.4555C238.625 63.3073 238.867 63.1401 239.035 62.9292L236.564 60.3072C236.432 60.451 236.28 60.6392 236.109 60.7981ZM234.413 65.0104C234.413 64.7978 234.359 64.6086 234.259 64.4253C233.966 63.8783 233.272 63.7022 232.73 64.0139C232.349 64.2192 232.154 64.6086 232.154 65.0104C232.166 65.1938 232.21 65.3992 232.318 65.5725C232.349 65.6269 232.385 65.6833 232.44 65.7428C232.78 66.1498 233.379 66.2444 233.839 65.9757C233.966 65.9134 234.067 65.8305 234.148 65.7428C234.317 65.5374 234.413 65.2626 234.413 65.0104ZM234.811 64.1284C234.961 64.3926 235.034 64.6981 235.046 65.0104C235.046 65.254 234.995 65.5037 234.894 65.7304C234.73 66.059 234.487 66.3531 234.148 66.5495C233.323 67.0328 232.256 66.7442 231.755 65.8925C231.738 65.8436 231.716 65.7903 231.682 65.7304C231.581 65.5037 231.533 65.254 231.511 65.0104C231.533 64.3833 231.837 63.8047 232.398 63.4789C233.236 63.0028 234.317 63.2873 234.811 64.1284ZM238.503 59.4166L238.92 60.0774L239.301 60.7431L239.814 60.0774L239.948 59.9116L238.503 59.4166ZM238.103 58.6092L241.617 59.7671C241.535 59.8717 241.469 59.9718 241.395 60.0774C241.334 60.1565 241.261 60.237 241.212 60.3399L240.597 60.118L239.638 61.32L239.988 61.8707C239.845 62.0341 239.684 62.2113 239.501 62.3922L238.109 60.0774L237.595 59.2243L238.103 58.6092ZM241.995 58.0877L239.414 56.6618L239.084 57.2583L242.18 58.9928L243.374 56.8465L242.842 56.561L241.995 58.0877ZM221.589 65.5725L221.333 67.7277L220.301 65.3641C220.059 65.3166 219.908 65.254 219.664 65.2151L218.855 68.7009C219.105 68.768 219.346 68.7945 219.604 68.8399L220.038 66.6991L221.083 69.0841C221.321 69.1202 221.589 69.1952 221.866 69.188L222.253 65.5877C222.05 65.5763 221.809 65.6093 221.589 65.5725ZM221.47 26.4766L221.781 29.3648L222.536 29.285L222.241 26.4188L223.384 26.3479L223.34 25.7046C222.064 25.7782 221.538 25.8298 220.274 26.019L220.359 26.6303L221.47 26.4766ZM224.972 28.0511C225.355 28.0693 225.711 28.1119 226.071 28.1632L225.882 27.425L225.644 26.6647L225.288 27.425L224.972 28.0511ZM224.387 29.2516C224.092 29.2485 223.955 29.2485 223.666 29.2485L224.542 27.425L225.337 25.7679L226.125 25.8498L226.539 27.425L227.112 29.542C226.847 29.4924 226.641 29.4522 226.39 29.4377L226.186 28.7742C225.666 28.693 225.196 28.6679 224.713 28.6469L224.387 29.2516ZM217.069 28.3792C217.116 29.007 217.671 29.4653 218.273 29.4137C218.868 29.3521 219.311 28.876 219.311 28.276C219.333 28.2461 219.311 28.2121 219.311 28.1728C219.26 27.5416 218.718 27.0989 218.091 27.158C217.495 27.2024 217.047 27.6757 217.069 28.276V28.3792ZM216.425 28.4418V28.276C216.407 27.3634 217.104 26.6117 218.02 26.5385C218.989 26.4439 219.849 27.158 219.93 28.135V28.276C219.93 29.1873 219.244 29.9665 218.313 30.0525C217.372 30.1361 216.507 29.4247 216.425 28.4418ZM223.81 50.8681C225.644 50.8681 227.153 49.3559 227.153 47.513C227.153 45.9826 226.092 44.6509 224.631 44.2853C224.613 44.1346 224.573 43.4352 224.573 43.4352H222.886C222.886 43.4352 222.848 44.1951 222.834 44.3462C221.434 44.7724 220.49 46.0534 220.49 47.513C220.49 49.3559 221.997 50.8681 223.81 50.8681ZM223.747 52.5362C220.983 52.5362 218.724 50.2599 218.724 47.4921C218.724 44.7046 220.983 42.44 223.747 42.44C226.531 42.44 228.768 44.7046 228.768 47.4921C228.768 50.2723 226.519 52.5362 223.747 52.5362ZM213.852 63.5199C214.331 63.7806 214.799 64.0534 215.323 64.3025L215.637 63.7806C214.912 63.405 214.231 62.975 213.621 62.5501L211.62 65.4972C212.379 66.0008 213.073 66.4219 213.852 66.8732L214.175 66.3531L212.561 65.3992L213.106 64.6306L214.175 65.2753L214.486 64.7744C214.143 64.5849 213.785 64.3665 213.411 64.1363L213.852 63.5199ZM209.851 59.1493L208.207 60.5752L209.045 58.1311C208.897 57.9219 208.828 57.776 208.673 57.5837L205.726 59.5903C205.857 59.7888 206.019 59.9718 206.159 60.1775L207.931 58.9457L207.1 61.408C207.243 61.5704 207.389 61.8195 207.592 61.9853L210.319 59.6388C210.168 59.4771 209.985 59.3327 209.851 59.1493ZM207.903 56.3092L204.868 58.0877C204.977 58.301 205.094 58.5511 205.227 58.7568L208.269 56.9735C208.12 56.7045 208.037 56.561 207.903 56.3092ZM211.654 61.8501L209.783 64.0782L209.2 63.5708L211.135 61.408C210.828 61.1228 210.594 60.8662 210.298 60.6013L210.728 60.1672C211.465 60.8662 212.114 61.408 212.926 62.0644L212.553 62.5429C212.258 62.31 211.952 62.0861 211.654 61.8501Z" fill="white"/>
<path d="M119.161 54.0498L119.264 56.0564C119.28 56.3563 119.069 56.625 118.774 56.6824C117.928 56.839 116.764 57.0299 116.034 57.0299C112.368 57.0299 111.25 55.6198 111.25 51.0098V43.9636H109.844C109.509 43.9636 109.238 43.6915 109.238 43.3554V41.2725C109.238 40.9364 109.509 40.6667 109.844 40.6667H111.25V38.1892C111.25 37.9085 111.439 37.6642 111.707 37.5992L114.14 37.0055C114.32 36.9625 114.508 37.002 114.654 37.1162C114.801 37.2332 114.889 37.4066 114.889 37.594V40.6667H118.588C118.926 40.6667 119.194 40.9364 119.194 41.2725V43.3554C119.194 43.6915 118.926 43.9636 118.588 43.9636H114.889V50.4966C114.889 52.755 114.968 53.5396 116.545 53.5396C117.13 53.5396 118.04 53.4966 118.531 53.4732C118.856 53.4664 119.145 53.7123 119.161 54.0498ZM107.679 48.576C107.679 54.3952 105.475 56.992 100.533 56.992C95.567 56.992 93.3505 54.3952 93.3505 48.576C93.3505 42.8411 95.567 40.2835 100.533 40.2835C105.408 40.2835 107.679 42.9158 107.679 48.576ZM103.98 48.576C103.98 45.0015 103.012 43.6124 100.533 43.6124C97.9635 43.6124 97.0532 44.9103 97.0532 48.576C97.0532 51.8987 97.6072 53.6951 100.533 53.6951C103.414 53.6951 103.98 51.8196 103.98 48.576ZM188.756 54.0498L188.859 56.0564C188.874 56.3563 188.664 56.625 188.369 56.6824C187.522 56.839 186.359 57.0299 185.631 57.0299C181.963 57.0299 180.845 55.6198 180.845 51.0098V43.9636H179.438C179.103 43.9636 178.833 43.6915 178.833 43.3554V41.2725C178.833 40.9364 179.103 40.6667 179.438 40.6667H180.845V38.1892C180.845 37.9085 181.034 37.6642 181.304 37.5992L183.734 37.0055C183.914 36.9625 184.102 37.002 184.25 37.1162C184.395 37.2332 184.483 37.4066 184.483 37.594V40.6667H188.184C188.521 40.6667 188.789 40.9364 188.789 41.2725V43.3554C188.789 43.6915 188.521 43.9636 188.184 43.9636H184.483V50.4966C184.483 52.755 184.562 53.5396 186.142 53.5396C186.724 53.5396 187.635 53.4966 188.126 53.4732C188.451 53.4664 188.74 53.7123 188.756 54.0498ZM91.134 55.7911C91.2163 55.9783 91.1981 56.1946 91.0884 56.3684C90.9756 56.5411 90.787 56.6432 90.5799 56.6432H87.7573C87.5201 56.6432 87.301 56.5005 87.2067 56.2824L83.5921 48.1216C81.7932 48.1085 80.2343 48.0125 79.3909 47.953V56.0364C79.3909 56.3725 79.1231 56.6432 78.7881 56.6432H76.2634C75.9285 56.6432 75.658 56.3725 75.658 56.0364V35.5658C75.658 35.2565 75.8894 34.9978 76.1969 34.9634C79.433 34.5967 82.0246 34.5589 82.987 34.5589C83.3181 34.5589 83.4954 34.5606 83.4954 34.5606C89.7057 34.5606 91.0123 38.2425 91.0123 41.3265C91.0123 43.9027 89.7856 45.7634 87.2639 47.0187L91.134 55.7911ZM83.4827 38.0743H82.1528C80.6666 38.0743 79.8198 38.1857 79.3909 38.2724V44.5838C80.0999 44.633 81.4671 44.706 83.3061 44.6864C85.6776 44.6612 87.1484 43.3977 87.1484 41.3918C87.1484 39.7881 86.1871 38.0743 83.4827 38.0743ZM134.002 45.6922V56.2858C134.002 56.463 133.926 56.6295 133.795 56.7447C133.662 56.8606 133.484 56.9119 133.314 56.8871C132.079 56.7134 131.49 56.3254 130.905 55.8744C130.882 55.8857 128.147 56.992 125.705 56.992C122.765 56.992 121.079 55.1296 121.079 51.8736C121.079 48.6954 122.622 47.2891 126.409 47.0049L130.364 46.686V45.7228C130.364 44.504 129.642 43.803 128.385 43.803C126.652 43.803 124.179 44.0066 122.863 44.1253C122.698 44.1432 122.532 44.0892 122.407 43.9801C122.285 43.8728 122.209 43.7128 122.203 43.5487L122.123 41.5232C122.111 41.2147 122.33 40.9467 122.632 40.9013C123.81 40.7124 126.744 40.2835 128.577 40.2835C132.279 40.2835 134.002 42.0035 134.002 45.6922ZM126.853 49.7236C125.425 49.8584 124.747 50.5131 124.747 51.7749C124.747 52.5492 124.959 53.8599 126.375 53.8599C128.056 53.8599 130.339 53.2235 130.364 53.2156V49.5372L126.853 49.7236ZM161.45 45.6922V56.2858C161.45 56.463 161.373 56.6295 161.243 56.7447C161.108 56.8606 160.932 56.9119 160.762 56.8871C159.526 56.7134 158.938 56.3254 158.354 55.8744C158.329 55.8857 155.595 56.992 153.153 56.992C150.212 56.992 148.525 55.1296 148.525 51.8736C148.525 48.6954 150.069 47.2891 153.857 47.0049L157.812 46.686V45.7228C157.812 44.504 157.09 43.803 155.832 43.803C154.1 43.803 151.628 44.0066 150.309 44.1253C150.145 44.1432 149.978 44.0892 149.853 43.9801C149.731 43.8728 149.655 43.7128 149.648 43.5487L149.57 41.5232C149.558 41.2147 149.777 40.9467 150.078 40.9013C151.256 40.7124 154.192 40.2835 156.024 40.2835C159.727 40.2835 161.45 42.0035 161.45 45.6922ZM154.301 49.7236C152.872 49.8584 152.195 50.5131 152.195 51.7749C152.195 52.5492 152.407 53.8599 153.823 53.8599C155.503 53.8599 157.788 53.2235 157.812 53.2156V49.5372L154.301 49.7236ZM145.81 40.5456C144.202 40.6419 142.62 41.5635 141.636 42.2653V41.2725C141.636 40.9364 141.364 40.6667 141.03 40.6667H138.6C138.265 40.6667 137.994 40.9364 137.994 41.2725V56.0364C137.994 56.3725 138.265 56.6432 138.6 56.6432H141.03C141.364 56.6432 141.636 56.3725 141.636 56.0364V45.8312C142.184 45.3733 143.88 44.0967 145.901 43.9172C146.212 43.8907 146.452 43.6279 146.452 43.3134V41.1497C146.452 40.9821 146.385 40.8239 146.26 40.7107C146.141 40.5927 145.974 40.5301 145.81 40.5456ZM176.631 53.7261L176.71 55.7516C176.723 56.0601 176.503 56.3278 176.202 56.3742C175.023 56.5645 173.147 56.992 171.313 56.992C166.348 56.992 164.133 54.4347 164.133 48.6998H164.135C164.135 48.6575 164.133 48.618 164.133 48.576C164.133 42.8411 166.348 40.2835 171.313 40.2835C173.147 40.2835 175.023 40.7124 176.202 40.9013C176.503 40.9467 176.723 41.2147 176.71 41.5232L176.631 43.5487C176.625 43.7128 176.549 43.8728 176.427 43.9801C176.302 44.0892 176.134 44.1432 175.971 44.1253C174.652 44.0066 173.045 43.6124 171.313 43.6124C168.744 43.6124 167.833 44.9103 167.833 48.576C167.833 48.716 167.836 48.8491 167.837 48.9847C167.839 49.0638 167.839 49.1464 167.842 49.2227C167.846 49.3397 167.85 49.4532 167.856 49.5647C167.86 49.6713 167.865 49.7769 167.873 49.8774C167.877 49.9331 167.881 49.9847 167.885 50.038C168.107 52.6838 169.086 53.6614 171.313 53.6614C173.045 53.6614 174.652 53.2672 175.971 53.1506C176.134 53.133 176.302 53.1846 176.427 53.2947C176.549 53.402 176.625 53.5627 176.631 53.7261Z" fill="white"/>
<path d="M246.534 67.7753C246.966 67.7753 247.38 67.8861 247.78 68.1039C248.175 68.3185 248.49 68.6291 248.717 69.0358C248.942 69.4382 249.058 69.8641 249.058 70.3051C249.058 70.7465 248.942 71.1651 248.721 71.5645C248.499 71.9625 248.187 72.2776 247.792 72.4992C247.393 72.7231 246.975 72.8346 246.534 72.8346C246.098 72.8346 245.679 72.7248 245.28 72.4992C244.882 72.2776 244.571 71.9625 244.35 71.5645C244.128 71.1651 244.015 70.7465 244.015 70.3051C244.015 69.8641 244.128 69.4358 244.354 69.0358C244.583 68.6281 244.894 68.3209 245.291 68.1039C245.688 67.8885 246.105 67.7753 246.534 67.7753ZM246.54 68.2734C246.193 68.2734 245.86 68.3598 245.541 68.5321C245.223 68.7048 244.972 68.957 244.789 69.2838C244.607 69.6078 244.514 69.9491 244.514 70.3051C244.514 70.6612 244.603 70.9993 244.783 71.3203C244.961 71.6399 245.21 71.892 245.529 72.0723C245.85 72.2556 246.187 72.3433 246.54 72.3433C246.895 72.3433 247.228 72.2546 247.548 72.0723C247.869 71.892 248.116 71.6385 248.296 71.3203C248.478 70.9983 248.567 70.6612 248.567 70.3051C248.567 69.9491 248.473 69.6078 248.29 69.2838C248.107 68.957 247.858 68.7048 247.54 68.5321C247.22 68.3598 246.885 68.2734 246.54 68.2734ZM245.396 71.6598V68.9745H245.94C246.449 68.9745 246.734 68.9776 246.796 68.9814C246.975 68.9928 247.118 69.0371 247.218 69.0905C247.318 69.1441 247.399 69.2284 247.466 69.3447C247.535 69.4616 247.566 69.5906 247.566 69.7293C247.566 69.9247 247.5 70.0901 247.376 70.227C247.25 70.3667 247.071 70.4486 246.846 70.4813C246.928 70.5112 246.99 70.5473 247.034 70.5838C247.078 70.622 247.135 70.6908 247.215 70.7936C247.233 70.8167 247.3 70.925 247.413 71.1163L247.729 71.6598H247.056L246.832 71.2226C246.679 70.9298 246.556 70.7465 246.458 70.6694C246.362 70.5944 246.233 70.5563 246.079 70.5563H245.94V71.6598H245.396ZM245.94 70.1324H246.159C246.473 70.1324 246.67 70.1194 246.745 70.0974C246.822 70.0757 246.882 70.033 246.926 69.9704C246.966 69.9095 246.991 69.839 246.991 69.7664C246.991 69.6887 246.966 69.623 246.926 69.5679C246.882 69.5091 246.822 69.4634 246.742 69.4372C246.665 69.4121 246.469 69.4007 246.159 69.4007H245.94V70.1324Z" fill="white"/>
<path d="M28.9302 65.888V72.5878C28.9302 75.7985 27.3085 77.5185 24.491 77.5185C21.6734 77.5185 20.0517 75.7985 20.0517 72.5878V65.888H21.6898V72.3749C21.6898 74.5699 22.3778 76.077 24.491 76.077C26.6041 76.077 27.2921 74.5699 27.2921 72.3749V65.888H28.9302ZM31.7097 77.3219V68.9676H33.2003V70.2945H33.2331C33.6918 69.3444 34.8057 68.7711 35.9687 68.7711C38.131 68.7711 39.0975 70.1143 39.0975 72.3585V77.3219H37.5577V72.9973C37.5577 71.048 37.1318 70.0979 35.7885 70.016C34.0358 70.016 33.2495 71.4248 33.2495 73.456V77.3219H31.7097ZM41.9203 77.3219V68.9676H43.4602V77.3219H41.9203ZM43.5584 65.3638V67.1002H41.8221V65.3638H43.5584ZM52.9827 68.9676L49.985 77.3219H48.1503L45.1526 68.9676H46.8399L49.1004 75.7821H49.1332L51.4429 68.9676H52.9827ZM60.8783 75.4381V76.9779C60.2886 77.1909 59.617 77.5185 58.241 77.5185C55.276 77.5185 53.9164 75.7166 53.9164 72.9973C53.9164 70.5238 55.4726 68.7711 57.8314 68.7711C60.6162 68.7711 61.5171 70.8023 61.5171 73.4888H55.5545C55.5545 75.1432 56.8486 76.2735 58.3065 76.2735C59.3221 76.2735 60.5015 75.7493 60.8783 75.4381ZM55.5545 72.3421H59.8791C59.8791 71.0644 59.1255 70.016 57.7987 70.016C56.2916 70.016 55.6692 71.261 55.5545 72.3421ZM63.5756 77.3219V68.9676H65.0171V70.2617H65.0499C65.4594 69.3935 66.344 68.7711 67.2286 68.7711C67.6872 68.7711 67.9166 68.8202 68.2442 68.8857V70.2617C67.9657 70.1471 67.6545 70.1143 67.3924 70.1143C66.0164 70.1143 65.1154 71.4248 65.1154 73.5215V77.3219H63.5756ZM69.238 77.0598L69.3199 75.6838C69.926 76.077 70.7942 76.2735 71.2365 76.2735C71.9409 76.2735 72.8091 75.9787 72.8091 75.0777C72.8091 73.5543 69.1889 73.6853 69.1889 71.3429C69.1889 69.6065 70.483 68.7711 72.1375 68.7711C72.8582 68.7711 73.4479 68.9185 74.054 69.0987L73.923 70.4419C73.579 70.229 72.6616 70.016 72.3013 70.016C71.515 70.016 70.827 70.3436 70.827 71.0316C70.827 72.7353 74.4472 72.2438 74.4472 74.9139C74.4472 76.6994 73.022 77.5185 71.5314 77.5185C70.7451 77.5185 69.9424 77.4366 69.238 77.0598ZM76.5058 77.3219V68.9676H78.0456V77.3219H76.5058ZM78.1439 65.3638V67.1002H76.4075V65.3638H78.1439ZM85.3076 68.9676V70.2126H83.0961V74.7829C83.0961 75.7493 83.6859 76.2735 84.3902 76.2735C84.8653 76.2735 85.2093 76.1261 85.4386 75.9787V77.2891C85.0946 77.3874 84.6196 77.5185 84.1281 77.5185C82.5392 77.5185 81.5563 76.7649 81.5563 75.0941V70.2126H79.6725V68.9676H81.5563V67.0347L83.0961 66.5433V68.9676H85.3076ZM86.5144 80.8438L86.6127 79.5825C86.8092 79.648 87.0713 79.7135 87.3334 79.7135C88.7094 79.7135 89.1681 77.8133 89.1681 77.6495C89.1681 77.4693 88.9715 77.0434 88.8732 76.7649L86.0393 68.9676H87.7266L89.9707 75.8804H90.0035L92.2968 68.9676H93.853L90.7734 77.5021C90.2001 79.1074 89.594 80.9585 87.5628 80.9585C87.0713 80.9585 86.7929 80.8929 86.5144 80.8438ZM99.4278 73.1448C99.4278 70.6057 101.131 68.7711 103.687 68.7711C106.226 68.7711 107.929 70.6057 107.929 73.1448C107.929 75.5364 106.193 77.5185 103.687 77.5185C101.164 77.5185 99.4278 75.5364 99.4278 73.1448ZM101.066 73.1448C101.066 74.6354 101.869 76.2735 103.687 76.2735C105.489 76.2735 106.291 74.6354 106.291 73.1448C106.291 71.5558 105.325 70.016 103.687 70.016C102.032 70.016 101.066 71.5558 101.066 73.1448ZM110.998 77.3219V70.2126H109.032V68.9676H110.998V68.1977C110.998 66.1665 111.522 64.8397 113.799 64.8397C114.192 64.8397 114.52 64.8888 114.831 64.9379L114.766 66.1829C114.585 66.1174 114.291 66.0846 114.029 66.0846C112.702 66.0846 112.538 66.9364 112.538 68.0667V68.9676H114.749V70.2126H112.538V77.3219H110.998ZM129.099 66.1829L128.968 67.7718C128.247 67.3459 127.444 67.133 126.609 67.133C123.972 67.133 122.219 69.0332 122.219 71.605C122.219 74.2914 124.152 76.077 126.527 76.077C127.346 76.077 128.444 75.864 129.017 75.52L129.115 77.1089C128.247 77.4693 127.182 77.5185 126.511 77.5185C122.89 77.5185 120.482 75.1924 120.482 71.5558C120.482 68.0339 123.038 65.6915 126.527 65.6915C127.412 65.6915 128.28 65.8225 129.099 66.1829ZM130.382 73.1448C130.382 70.6057 132.086 68.7711 134.641 68.7711C137.18 68.7711 138.884 70.6057 138.884 73.1448C138.884 75.5364 137.147 77.5185 134.641 77.5185C132.118 77.5185 130.382 75.5364 130.382 73.1448ZM132.02 73.1448C132.02 74.6354 132.823 76.2735 134.641 76.2735C136.443 76.2735 137.245 74.6354 137.245 73.1448C137.245 71.5558 136.279 70.016 134.641 70.016C132.986 70.016 132.02 71.5558 132.02 73.1448ZM141.15 77.3219V65.0362H142.689V77.3219H141.15ZM144.955 73.1448C144.955 70.6057 146.659 68.7711 149.214 68.7711C151.753 68.7711 153.457 70.6057 153.457 73.1448C153.457 75.5364 151.72 77.5185 149.214 77.5185C146.692 77.5185 144.955 75.5364 144.955 73.1448ZM146.593 73.1448C146.593 74.6354 147.396 76.2735 149.214 76.2735C151.016 76.2735 151.819 74.6354 151.819 73.1448C151.819 71.5558 150.852 70.016 149.214 70.016C147.56 70.016 146.593 71.5558 146.593 73.1448ZM155.51 77.3219V68.9676H156.951V70.1798H156.984C157.574 69.2134 158.409 68.7711 159.638 68.7711C160.604 68.7711 161.571 69.2625 162.013 70.3928C162.586 69.197 163.848 68.7711 164.601 68.7711C166.731 68.7711 167.501 70.1471 167.501 71.9653V77.3219H165.961V72.3421C165.961 71.3101 165.715 70.016 164.47 70.016C162.898 70.016 162.275 71.5558 162.275 73.112V77.3219H160.735V72.3421C160.735 71.3101 160.49 70.016 159.245 70.016C157.672 70.016 157.05 71.5558 157.05 73.112V77.3219H155.51ZM170.083 77.3219V65.0362H171.623V70.1143H171.656C172.131 69.3444 172.966 68.7711 174.424 68.7711C176.849 68.7711 178.028 70.7532 178.028 72.9973C178.028 75.2907 176.963 77.5185 174.441 77.5185C172.95 77.5185 172 76.7649 171.59 76.1425H171.558V77.3219H170.083ZM176.39 73.112C176.423 71.605 175.768 70.016 174.097 70.016C172.426 70.016 171.623 71.605 171.623 73.1612C171.623 74.5535 172.344 76.2735 174.08 76.2735C175.735 76.2735 176.423 74.4225 176.39 73.112ZM179.541 73.1448C179.541 70.6057 181.244 68.7711 183.8 68.7711C186.339 68.7711 188.042 70.6057 188.042 73.1448C188.042 75.5364 186.306 77.5185 183.8 77.5185C181.277 77.5185 179.541 75.5364 179.541 73.1448ZM181.179 73.1448C181.179 74.6354 181.981 76.2735 183.8 76.2735C185.601 76.2735 186.404 74.6354 186.404 73.1448C186.404 71.5558 185.438 70.016 183.8 70.016C182.145 70.016 181.179 71.5558 181.179 73.1448ZM34.5437 82.101L34.3144 83.608C33.4789 83.2804 33.0203 83.133 32.1685 83.133C31.2511 83.133 30.17 83.4606 30.17 84.6564C30.17 86.8514 35.0843 86.3436 35.0843 90.1112C35.0843 92.552 33.2005 93.5185 30.9071 93.5185C30.1045 93.5185 29.3182 93.2891 28.5647 93.0434L28.7285 91.52C29.2854 91.7493 30.2683 92.077 31.1037 92.077C32.0374 92.077 33.3479 91.5528 33.3479 90.2095C33.3479 87.6541 28.4336 88.3585 28.4336 84.8038C28.4336 82.7726 30.039 81.6915 32.1029 81.6915C32.8565 81.6915 33.7574 81.8225 34.5437 82.101ZM42.6031 85.0987L42.4721 86.3764C41.8823 86.1307 41.2926 86.016 40.8012 86.016C39.0812 86.016 38.1147 87.5558 38.1147 89.1448C38.1147 90.6354 38.9174 92.2735 40.8995 92.2735C41.4237 92.2735 42.0789 92.1097 42.554 91.7985L42.6686 93.1745C42.0298 93.4693 41.2926 93.5185 40.7357 93.5185C38.213 93.5185 36.4766 91.5364 36.4766 89.1448C36.4766 86.6057 38.1803 84.7711 40.7357 84.7711C41.3582 84.7711 42.1608 84.9185 42.6031 85.0987ZM44.4433 93.3219V81.0362H45.9831V86.1635H46.0158C46.5728 85.2789 47.5392 84.7711 48.7023 84.7711C50.8646 84.7711 51.831 86.1143 51.831 88.3585V93.3219H50.2912V88.9973C50.2912 87.048 49.8653 86.0979 48.5221 86.016C46.7693 86.016 45.9831 87.4248 45.9831 89.456V93.3219H44.4433ZM53.9004 89.1448C53.9004 86.6057 55.604 84.7711 58.1594 84.7711C60.6985 84.7711 62.4021 86.6057 62.4021 89.1448C62.4021 91.5364 60.6657 93.5185 58.1594 93.5185C55.6368 93.5185 53.9004 91.5364 53.9004 89.1448ZM55.5385 89.1448C55.5385 90.6354 56.3412 92.2735 58.1594 92.2735C59.9613 92.2735 60.764 90.6354 60.764 89.1448C60.764 87.5558 59.7975 86.016 58.1594 86.016C56.505 86.016 55.5385 87.5558 55.5385 89.1448ZM63.9145 89.1448C63.9145 86.6057 65.6181 84.7711 68.1735 84.7711C70.7126 84.7711 72.4162 86.6057 72.4162 89.1448C72.4162 91.5364 70.6798 93.5185 68.1735 93.5185C65.6509 93.5185 63.9145 91.5364 63.9145 89.1448ZM65.5526 89.1448C65.5526 90.6354 66.3553 92.2735 68.1735 92.2735C69.9754 92.2735 70.7781 90.6354 70.7781 89.1448C70.7781 87.5558 69.8116 86.016 68.1735 86.016C66.5191 86.016 65.5526 87.5558 65.5526 89.1448ZM74.6821 93.3219V81.0362H76.2219V93.3219H74.6821ZM83.0469 89.1448C83.0469 86.6057 84.7505 84.7711 87.3059 84.7711C89.8449 84.7711 91.5486 86.6057 91.5486 89.1448C91.5486 91.5364 89.8122 93.5185 87.3059 93.5185C84.7833 93.5185 83.0469 91.5364 83.0469 89.1448ZM84.685 89.1448C84.685 90.6354 85.4876 92.2735 87.3059 92.2735C89.1078 92.2735 89.9105 90.6354 89.9105 89.1448C89.9105 87.5558 88.944 86.016 87.3059 86.016C85.6514 86.016 84.685 87.5558 84.685 89.1448ZM94.6172 93.3219V86.2126H92.6515V84.9676H94.6172V84.1977C94.6172 82.1665 95.1414 80.8397 97.4183 80.8397C97.8114 80.8397 98.1391 80.8888 98.4503 80.9379L98.3848 82.1829C98.2046 82.1174 97.9097 82.0846 97.6476 82.0846C96.3208 82.0846 96.157 82.9364 96.157 84.0667V84.9676H98.3684V86.2126H96.157V93.3219H94.6172ZM112.718 82.1829L112.587 83.7718C111.866 83.3459 111.063 83.133 110.228 83.133C107.591 83.133 105.838 85.0332 105.838 87.605C105.838 90.2914 107.771 92.077 110.146 92.077C110.965 92.077 112.063 91.864 112.636 91.52L112.734 93.1089C111.866 93.4693 110.801 93.5185 110.13 93.5185C106.51 93.5185 104.102 91.1924 104.102 87.5558C104.102 84.0339 106.657 81.6915 110.146 81.6915C111.031 81.6915 111.899 81.8225 112.718 82.1829ZM114.001 89.1448C114.001 86.6057 115.705 84.7711 118.26 84.7711C120.799 84.7711 122.503 86.6057 122.503 89.1448C122.503 91.5364 120.766 93.5185 118.26 93.5185C115.737 93.5185 114.001 91.5364 114.001 89.1448ZM115.639 89.1448C115.639 90.6354 116.442 92.2735 118.26 92.2735C120.062 92.2735 120.865 90.6354 120.865 89.1448C120.865 87.5558 119.898 86.016 118.26 86.016C116.606 86.016 115.639 87.5558 115.639 89.1448ZM124.556 93.3219V84.9676H125.997V86.1798H126.03C126.62 85.2134 127.455 84.7711 128.684 84.7711C129.65 84.7711 130.617 85.2625 131.059 86.3928C131.632 85.197 132.894 84.7711 133.647 84.7711C135.777 84.7711 136.546 86.1471 136.546 87.9653V93.3219H135.007V88.3421C135.007 87.3101 134.761 86.016 133.516 86.016C131.943 86.016 131.321 87.5558 131.321 89.112V93.3219H129.781V88.3421C129.781 87.3101 129.535 86.016 128.291 86.016C126.718 86.016 126.095 87.5558 126.095 89.112V93.3219H124.556ZM139.129 96.7619V84.9676H140.604V86.1471H140.636C141.046 85.5246 141.996 84.7711 143.47 84.7711C145.895 84.7711 147.074 86.7532 147.074 88.9973C147.074 91.2907 146.009 93.5185 143.487 93.5185C142.012 93.5185 141.177 92.9451 140.702 92.1752H140.669V96.7619H139.129ZM145.436 89.112C145.469 87.605 144.813 86.016 143.143 86.016C141.472 86.016 140.669 87.605 140.669 89.1612C140.669 90.5535 141.39 92.2735 143.126 92.2735C144.781 92.2735 145.469 90.4225 145.436 89.112ZM156.531 84.9676V93.3219H155.041V91.995H155.008C154.549 92.9451 153.435 93.5185 152.272 93.5185C150.11 93.5185 149.143 92.1752 149.143 89.9311V84.9676H150.683V89.2922C150.683 91.2415 151.109 92.1916 152.452 92.2735C154.205 92.2735 154.991 90.8648 154.991 88.8335V84.9676H156.531ZM163.597 84.9676V86.2126H161.385V90.7829C161.385 91.7493 161.975 92.2735 162.679 92.2735C163.154 92.2735 163.498 92.1261 163.728 91.9787V93.2891C163.384 93.3874 162.909 93.5185 162.417 93.5185C160.828 93.5185 159.845 92.7649 159.845 91.0941V86.2126H157.962V84.9676H159.845V83.0347L161.385 82.5433V84.9676H163.597ZM165.721 93.3219V84.9676H167.261V93.3219H165.721ZM167.359 81.3638V83.1002H165.623V81.3638H167.359ZM170.083 93.3219V84.9676H171.574V86.2945H171.607C172.065 85.3444 173.179 84.7711 174.342 84.7711C176.505 84.7711 177.471 86.1143 177.471 88.3585V93.3219H175.931V88.9973C175.931 87.048 175.505 86.0979 174.162 86.016C172.409 86.016 171.623 87.4248 171.623 89.456V93.3219H170.083ZM187.485 84.9676V92.9615C187.485 95.5006 186.175 96.9585 183.177 96.9585C182.293 96.9585 181.523 96.8438 180.179 96.3851L180.343 94.96C181.523 95.5006 182.227 95.7135 183.357 95.7135C184.979 95.7135 185.945 94.616 185.945 92.8469V92.0278H185.913C185.257 92.896 184.176 93.3219 183.112 93.3219C180.72 93.3219 179.541 91.3726 179.541 89.2103C179.541 87.0644 180.753 84.7711 183.275 84.7711C184.75 84.7711 185.569 85.3116 186.027 86.2126H186.06V84.9676H187.485ZM183.505 92.077C184.946 92.077 185.945 90.7992 185.945 89.2431C185.945 87.5067 185.143 86.016 183.505 86.016C181.949 86.016 181.179 87.7033 181.179 89.1284C181.179 90.701 182.063 92.077 183.505 92.077Z" fill="white"/>
</svg>
