<svg width="37" height="36" viewBox="0 0 37 36" fill="none" xmlns="http://www.w3.org/2000/svg">
<g id="icons8-tiktok 1">
<g id="Group">
<g id="Group_2">
<path id="Vector" d="M9.57446 4.5C7.10701 4.5 5.07446 6.53255 5.07446 9V27C5.07446 29.4675 7.10701 31.5 9.57446 31.5H27.5745C30.0419 31.5 32.0745 29.4675 32.0745 27V9C32.0745 6.53255 30.0419 4.5 27.5745 4.5H9.57446ZM18.5745 10.5H21.5745C21.5745 12.0075 23.781 13.5 24.5745 13.5V16.5C23.667 16.5 22.5765 16.1012 21.5745 15.4277V21C21.5745 23.481 19.5555 25.5 17.0745 25.5C14.5935 25.5 12.5745 23.481 12.5745 21C12.5745 18.519 14.5935 16.5 17.0745 16.5V19.5C16.2465 19.5 15.5745 20.1735 15.5745 21C15.5745 21.8265 16.2465 22.5 17.0745 22.5C17.9025 22.5 18.5745 21.8265 18.5745 21V10.5Z" fill="white"/>
</g>
</g>
</g>
</svg>
